<?xml version="1.0" encoding="UTF-8"?>
<svg width="200" height="200" viewBox="0 0 200 200" xmlns="http://www.w3.org/2000/svg">
  <rect width="100%" height="100%" fill="#f0f0f0"/>
  <path d="M65,40 L45,60 L45,150 L90,150 L90,130 L110,130 L110,150 L155,150 L155,60 L135,40 L110,50 L100,30 L90,50 Z" fill="#a7d8ff" stroke="#3a3a3a" stroke-width="2"/>
  <path d="M90,50 L90,90 M110,50 L110,90" stroke="#3a3a3a" stroke-width="1.5"/>
  <path d="M65,40 C65,40 70,50 75,55 M135,40 C135,40 130,50 125,55" stroke="#3a3a3a" stroke-width="1" fill="none"/>
  <path d="M45,70 L55,70 M45,80 L55,80 M45,90 L55,90" stroke="#3a3a3a" stroke-width="1"/>
  <path d="M145,70 L155,70 M145,80 L155,80 M145,90 L155,90" stroke="#3a3a3a" stroke-width="1"/>
  <text x="100" y="170" font-family="Arial" font-size="16" text-anchor="middle" fill="#333">衬衫</text>
</svg> 